<svg width="34" height="34" viewBox="0 0 34 34" fill="none" xmlns="http://www.w3.org/2000/svg">
<g clip-path="url(#clip0_1838_6036)">
<path d="M13.2726 8.06294C12.315 8.10812 11.661 8.26094 11.0894 8.48558C10.4977 8.71616 9.99621 9.02558 9.49725 9.52634C8.99829 10.0271 8.69103 10.5289 8.46207 11.1215C8.24049 11.6944 8.09037 12.3489 8.04807 13.3071C8.00577 14.2652 7.99641 14.5732 8.00109 17.0172C8.00577 19.4613 8.01657 19.7676 8.06301 20.7277C8.10873 21.6852 8.26101 22.3389 8.48565 22.9108C8.71659 23.5024 9.02565 24.0037 9.52659 24.5029C10.0275 25.002 10.529 25.3086 11.123 25.5379C11.6954 25.7591 12.3501 25.9099 13.308 25.9519C14.266 25.9938 14.5743 26.0035 17.0177 25.9989C19.461 25.9942 19.7686 25.9834 20.7285 25.9378C21.6885 25.8923 22.3388 25.7389 22.9109 25.5154C23.5025 25.2839 24.0042 24.9754 24.503 24.4743C25.0017 23.9731 25.3088 23.4709 25.5376 22.878C25.7594 22.3056 25.91 21.651 25.9516 20.6937C25.9935 19.7331 26.0034 19.4263 25.9988 16.9827C25.9941 14.539 25.9831 14.2326 25.9376 13.2729C25.892 12.3131 25.7396 11.6613 25.5151 11.0891C25.2838 10.4974 24.9751 9.9965 24.4743 9.497C23.9736 8.9975 23.471 8.6906 22.8783 8.46236C22.3055 8.24078 21.6512 8.08976 20.6933 8.04836C19.7353 8.00696 19.427 7.99634 16.9827 8.00102C14.5385 8.0057 14.2325 8.01614 13.2726 8.06294ZM13.3777 24.3328C12.5002 24.2946 12.0237 24.1488 11.7062 24.0268C11.2857 23.8648 10.9862 23.6689 10.6698 23.3556C10.3533 23.0422 10.1589 22.7416 9.99477 22.322C9.87147 22.0045 9.72297 21.5286 9.68193 20.6511C9.63729 19.7026 9.62793 19.4179 9.62271 17.0151C9.61749 14.6122 9.62667 14.3278 9.66825 13.3791C9.70569 12.5023 9.85239 12.0253 9.97425 11.7079C10.1363 11.2869 10.3314 10.9879 10.6455 10.6717C10.9596 10.3554 11.2593 10.1607 11.6792 9.9965C11.9964 9.87266 12.4723 9.72542 13.3494 9.68366C14.2986 9.63866 14.583 9.62966 16.9854 9.62444C19.3879 9.61922 19.673 9.62822 20.6225 9.66998C21.4993 9.70814 21.9765 9.8534 22.2935 9.97598C22.7141 10.138 23.0135 10.3326 23.3297 10.6472C23.646 10.9618 23.8409 11.2605 24.0051 11.6813C24.1291 11.9976 24.2763 12.4733 24.3177 13.351C24.3629 14.3001 24.3732 14.5847 24.3775 16.987C24.3818 19.3893 24.3734 19.6746 24.3318 20.623C24.2934 21.5005 24.148 21.9771 24.0258 22.295C23.8638 22.7153 23.6685 23.015 23.3542 23.3311C23.0399 23.6472 22.7406 23.8419 22.3205 24.0061C22.0037 24.1297 21.5272 24.2773 20.6508 24.3191C19.7016 24.3637 19.4172 24.3731 17.0139 24.3783C14.6105 24.3835 14.327 24.3738 13.3779 24.3328M20.7147 12.1898C20.715 12.4034 20.7787 12.6121 20.8977 12.7896C21.0167 12.967 21.1856 13.1051 21.3831 13.1865C21.5806 13.2679 21.7978 13.2889 22.0073 13.2469C22.2167 13.2048 22.409 13.1016 22.5597 12.9503C22.7105 12.7989 22.813 12.6063 22.8543 12.3967C22.8956 12.1871 22.8738 11.97 22.7917 11.7728C22.7095 11.5756 22.5708 11.4072 22.3929 11.2888C22.2151 11.1705 22.0061 11.1076 21.7925 11.108C21.5061 11.1086 21.2317 11.2229 21.0296 11.4257C20.8275 11.6286 20.7142 11.9034 20.7147 12.1898ZM12.3789 17.0089C12.3839 19.5613 14.4568 21.6258 17.0087 21.6209C19.5605 21.616 21.6264 19.5433 21.6215 16.9909C21.6167 14.4385 19.5432 12.3736 16.991 12.3786C14.4388 12.3837 12.374 14.4569 12.3789 17.0089ZM14 17.0057C13.9988 16.4123 14.1736 15.832 14.5023 15.338C14.8309 14.844 15.2987 14.4585 15.8465 14.2304C16.3942 14.0022 16.9973 13.9416 17.5795 14.0562C18.1616 14.1708 18.6968 14.4555 19.1172 14.8742C19.5376 15.2929 19.8243 15.8269 19.9413 16.4087C20.0582 16.9904 20 17.5937 19.774 18.1424C19.548 18.691 19.1644 19.1603 18.6717 19.4909C18.179 19.8215 17.5993 19.9986 17.006 19.9998C16.612 20.0007 16.2217 19.9239 15.8574 19.7738C15.4931 19.6238 15.1619 19.4035 14.8827 19.1254C14.6036 18.8474 14.382 18.5171 14.2305 18.1534C14.079 17.7897 14.0007 17.3997 14 17.0057Z" fill="white"/>
</g>
<defs>
<clipPath id="clip0_1838_6036">
<rect width="18" height="18" fill="white" transform="translate(8 8)"/>
</clipPath>
</defs>
</svg>
