<svg width="32" height="32" viewBox="0 0 32 32" fill="none" xmlns="http://www.w3.org/2000/svg">
<g clip-path="url(#clip0_1827_700)">
<path d="M16.0008 28.16C15.3679 28.16 14.7492 27.9723 14.223 27.6207C13.6967 27.2691 13.2866 26.7693 13.0444 26.1846C12.8022 25.5999 12.7388 24.9565 12.8623 24.3357C12.9857 23.715 13.2905 23.1448 13.738 22.6973C14.1856 22.2497 14.7558 21.945 15.3765 21.8215C15.9972 21.698 16.6406 21.7614 17.2254 22.0036C17.8101 22.2458 18.3099 22.656 18.6615 23.1822C19.0131 23.7084 19.2008 24.3271 19.2008 24.96C19.2008 25.8087 18.8636 26.6226 18.2635 27.2227C17.6634 27.8229 16.8495 28.16 16.0008 28.16ZM16.0008 23.04C15.621 23.04 15.2498 23.1526 14.9341 23.3636C14.6183 23.5746 14.3723 23.8744 14.2269 24.2252C14.0816 24.5761 14.0436 24.9621 14.1177 25.3346C14.1918 25.707 14.3746 26.0491 14.6431 26.3176C14.9116 26.5862 15.2538 26.769 15.6262 26.8431C15.9987 26.9172 16.3847 26.8792 16.7355 26.7339C17.0864 26.5885 17.3862 26.3424 17.5972 26.0267C17.8082 25.711 17.9208 25.3398 17.9208 24.96C17.9208 24.4508 17.7185 23.9624 17.3584 23.6024C16.9984 23.2423 16.51 23.04 16.0008 23.04Z" fill="#5E6671"/>
<path d="M19.8395 31.9999H12.1595C11.9898 31.9999 11.827 31.9325 11.707 31.8124C11.587 31.6924 11.5195 31.5296 11.5195 31.3599V30.0799C11.5211 29.2317 11.8587 28.4186 12.4585 27.8188C13.0583 27.2191 13.8713 26.8814 14.7195 26.8799H17.2795C18.1278 26.8814 18.9408 27.2191 19.5406 27.8188C20.1404 28.4186 20.478 29.2317 20.4795 30.0799V31.3599C20.4795 31.5296 20.4121 31.6924 20.2921 31.8124C20.1721 31.9325 20.0093 31.9999 19.8395 31.9999ZM12.7995 30.7199H19.1995V30.0799C19.1995 29.5707 18.9972 29.0823 18.6372 28.7222C18.2771 28.3622 17.7888 28.1599 17.2795 28.1599H14.7195C14.2103 28.1599 13.722 28.3622 13.3619 28.7222C13.0018 29.0823 12.7995 29.5707 12.7995 30.0799V30.7199Z" fill="#5E6671"/>
<path d="M10.2391 17.2799C9.60616 17.2799 8.98748 17.0922 8.46124 16.7406C7.935 16.389 7.52485 15.8892 7.28265 15.3045C7.04045 14.7198 6.97708 14.0763 7.10055 13.4556C7.22402 12.8349 7.52879 12.2647 7.97631 11.8171C8.42384 11.3696 8.99403 11.0648 9.61477 10.9414C10.2355 10.8179 10.8789 10.8813 11.4637 11.1235C12.0484 11.3657 12.5481 11.7758 12.8998 12.3021C13.2514 12.8283 13.4391 13.447 13.4391 14.0799C13.4391 14.9286 13.1019 15.7425 12.5018 16.3426C11.9017 16.9427 11.0878 17.2799 10.2391 17.2799ZM10.2391 12.1599C9.85932 12.1599 9.48811 12.2725 9.17237 12.4835C8.85663 12.6944 8.61054 12.9943 8.46522 13.3451C8.3199 13.696 8.28186 14.082 8.35595 14.4545C8.43003 14.8269 8.61289 15.169 8.88141 15.4375C9.14993 15.7061 9.49205 15.8889 9.86449 15.963C10.2369 16.0371 10.623 15.999 10.9738 15.8537C11.3246 15.7084 11.6245 15.4623 11.8355 15.1466C12.0464 14.8308 12.1591 14.4596 12.1591 14.0799C12.1591 13.5707 11.9568 13.0823 11.5967 12.7222C11.2366 12.3622 10.7483 12.1599 10.2391 12.1599Z" fill="#5E6671"/>
<path d="M14.0798 21.1199C13.91 21.1199 13.7472 21.0525 13.6272 20.9324C13.5072 20.8124 13.4398 20.6496 13.4398 20.4799V19.1999C13.4398 18.6907 13.2375 18.2023 12.8774 17.8422C12.5173 17.4822 12.029 17.2799 11.5198 17.2799H8.95977C8.45055 17.2799 7.9622 17.4822 7.60213 17.8422C7.24206 18.2023 7.03977 18.6907 7.03977 19.1999V20.4624C7.03977 20.6322 6.97235 20.795 6.85233 20.915C6.7323 21.035 6.56951 21.1024 6.39977 21.1024C6.23003 21.1024 6.06724 21.035 5.94721 20.915C5.82719 20.795 5.75977 20.6322 5.75977 20.4624V19.1824C5.7613 18.3342 6.09894 17.5212 6.69872 16.9214C7.2985 16.3216 8.11155 15.984 8.95977 15.9824H11.5198C12.368 15.984 13.181 16.3216 13.7808 16.9214C14.3806 17.5212 14.7182 18.3342 14.7198 19.1824V20.4624C14.7221 20.5479 14.7073 20.633 14.6762 20.7127C14.645 20.7924 14.5983 20.865 14.5386 20.9263C14.4789 20.9876 14.4076 21.0363 14.3288 21.0695C14.25 21.1028 14.1653 21.1199 14.0798 21.1199Z" fill="#5E6671"/>
<path d="M21.7605 17.2799C21.1276 17.2799 20.509 17.0922 19.9827 16.7406C19.4565 16.389 19.0463 15.8892 18.8041 15.3045C18.5619 14.7198 18.4986 14.0763 18.622 13.4556C18.7455 12.8349 19.0503 12.2647 19.4978 11.8171C19.9453 11.3696 20.5155 11.0648 21.1363 10.9414C21.757 10.8179 22.4004 10.8813 22.9851 11.1235C23.5699 11.3657 24.0696 11.7758 24.4213 12.3021C24.7729 12.8283 24.9605 13.447 24.9605 14.0799C24.9605 14.9286 24.6234 15.7425 24.0233 16.3426C23.4232 16.9427 22.6092 17.2799 21.7605 17.2799ZM21.7605 12.1599C21.3808 12.1599 21.0096 12.2725 20.6939 12.4835C20.3781 12.6944 20.132 12.9943 19.9867 13.3451C19.8414 13.696 19.8034 14.082 19.8774 14.4545C19.9515 14.8269 20.1344 15.169 20.4029 15.4375C20.6714 15.7061 21.0135 15.8889 21.386 15.963C21.7584 16.0371 22.1445 15.999 22.4953 15.8537C22.8461 15.7084 23.146 15.4623 23.357 15.1466C23.568 14.8308 23.6806 14.4596 23.6806 14.0799C23.6806 13.5707 23.4783 13.0823 23.1182 12.7222C22.7581 12.3622 22.2698 12.1599 21.7605 12.1599Z" fill="#5E6671"/>
<path d="M25.5993 21.1199C25.4296 21.1199 25.2668 21.0525 25.1467 20.9324C25.0267 20.8124 24.9593 20.6496 24.9593 20.4799V19.1999C24.9593 18.6907 24.757 18.2023 24.3969 17.8422C24.0369 17.4822 23.5485 17.2799 23.0393 17.2799H20.4793C20.2272 17.2799 19.9775 17.3295 19.7445 17.426C19.5116 17.5225 19.2999 17.664 19.1216 17.8422C18.9434 18.0205 18.8019 18.2322 18.7054 18.4651C18.6089 18.6981 18.5593 18.9477 18.5593 19.1999V20.4624C18.5593 20.6322 18.4919 20.795 18.3718 20.915C18.2518 21.035 18.089 21.1024 17.9193 21.1024C17.7495 21.1024 17.5868 21.035 17.4667 20.915C17.3467 20.795 17.2793 20.6322 17.2793 20.4624V19.1824C17.2808 18.3342 17.6185 17.5212 18.2183 16.9214C18.818 16.3216 19.6311 15.984 20.4793 15.9824H23.0393C23.8875 15.984 24.7006 16.3216 25.3003 16.9214C25.9001 17.5212 26.2378 18.3342 26.2393 19.1824V20.4624C26.2416 20.5479 26.2268 20.633 26.1957 20.7127C26.1646 20.7924 26.1178 20.865 26.0581 20.9263C25.9985 20.9876 25.9271 21.0363 25.8483 21.0695C25.7695 21.1028 25.6848 21.1199 25.5993 21.1199Z" fill="#5E6671"/>
<path d="M27.5203 28.16C26.8874 28.16 26.2687 27.9723 25.7425 27.6207C25.2163 27.2691 24.8061 26.7693 24.5639 26.1846C24.3217 25.5999 24.2583 24.9565 24.3818 24.3357C24.5053 23.715 24.8101 23.1448 25.2576 22.6973C25.7051 22.2497 26.2753 21.945 26.896 21.8215C27.5168 21.698 28.1602 21.7614 28.7449 22.0036C29.3296 22.2458 29.8294 22.656 30.181 23.1822C30.5326 23.7084 30.7203 24.3271 30.7203 24.96C30.7203 25.8087 30.3832 26.6226 29.7831 27.2227C29.1829 27.8229 28.369 28.16 27.5203 28.16ZM27.5203 23.04C27.1406 23.04 26.7694 23.1526 26.4536 23.3636C26.1379 23.5746 25.8918 23.8744 25.7465 24.2252C25.6011 24.5761 25.5631 24.9621 25.6372 25.3346C25.7113 25.707 25.8942 26.0491 26.1627 26.3176C26.4312 26.5862 26.7733 26.769 27.1457 26.8431C27.5182 26.9172 27.9042 26.8792 28.2551 26.7339C28.6059 26.5885 28.9058 26.3424 29.1167 26.0267C29.3277 25.711 29.4403 25.3398 29.4403 24.96C29.4403 24.4508 29.238 23.9624 28.878 23.6024C28.5179 23.2423 28.0295 23.04 27.5203 23.04Z" fill="#5E6671"/>
<path d="M31.3591 31.9999H23.6791C23.5093 31.9999 23.3465 31.9325 23.2265 31.8124C23.1065 31.6924 23.0391 31.5296 23.0391 31.3599V30.0799C23.0406 29.2317 23.3782 28.4186 23.978 27.8188C24.5778 27.2191 25.3908 26.8814 26.2391 26.8799H28.7991C29.6473 26.8814 30.4603 27.2191 31.0601 27.8188C31.6599 28.4186 31.9975 29.2317 31.9991 30.0799V31.3599C31.9991 31.5296 31.9316 31.6924 31.8116 31.8124C31.6916 31.9325 31.5288 31.9999 31.3591 31.9999ZM24.3191 30.7199H30.7191V30.0799C30.7191 29.5707 30.5168 29.0823 30.1567 28.7222C29.7966 28.3622 29.3083 28.1599 28.7991 28.1599H26.2391C25.7298 28.1599 25.2415 28.3622 24.8814 28.7222C24.5213 29.0823 24.3191 29.5707 24.3191 30.0799V30.7199Z" fill="#5E6671"/>
<path d="M4.4793 28.16C3.8464 28.16 3.22772 27.9723 2.70148 27.6207C2.17524 27.2691 1.76507 26.7693 1.52287 26.1846C1.28067 25.5999 1.21732 24.9565 1.34079 24.3357C1.46426 23.715 1.76902 23.1448 2.21655 22.6973C2.66408 22.2497 3.23427 21.945 3.85501 21.8215C4.47575 21.698 5.11915 21.7614 5.70387 22.0036C6.2886 22.2458 6.78837 22.656 7.13999 23.1822C7.49161 23.7084 7.6793 24.3271 7.6793 24.96C7.6793 25.8087 7.34215 26.6226 6.74203 27.2227C6.14192 27.8229 5.32799 28.16 4.4793 28.16ZM4.4793 23.04C4.09956 23.04 3.72834 23.1526 3.41259 23.3636C3.09685 23.5746 2.85076 23.8744 2.70544 24.2252C2.56012 24.5761 2.5221 24.9621 2.59619 25.3346C2.67027 25.707 2.85313 26.0491 3.12165 26.3176C3.39017 26.5862 3.73228 26.769 4.10473 26.8431C4.47717 26.9172 4.86321 26.8792 5.21405 26.7339C5.56488 26.5885 5.86474 26.3424 6.07571 26.0267C6.28669 25.711 6.39929 25.3398 6.39929 24.96C6.39929 24.4508 6.19701 23.9624 5.83694 23.6024C5.47687 23.2423 4.98852 23.04 4.4793 23.04Z" fill="#5E6671"/>
<path d="M8.32001 32H0.640025C0.555979 32 0.472751 31.9835 0.395103 31.9513C0.317454 31.9191 0.246897 31.872 0.187468 31.8125C0.128038 31.7531 0.0809057 31.6826 0.0487427 31.6049C0.0165797 31.5273 2.11392e-05 31.4441 2.11392e-05 31.36V30.08C-0.00150944 29.6585 0.0800907 29.2409 0.240149 28.851C0.400207 28.461 0.635574 28.1065 0.932798 27.8077C1.23002 27.5088 1.58327 27.2715 1.9723 27.1094C2.36134 26.9472 2.77854 26.8633 3.20002 26.8625H5.76002C6.60824 26.8641 7.42128 27.2017 8.02106 27.8015C8.62084 28.4013 8.95848 29.2143 8.96002 30.0625V31.3426C8.96235 31.4281 8.94753 31.5131 8.91641 31.5928C8.88529 31.6725 8.83852 31.7451 8.77886 31.8064C8.71919 31.8677 8.64785 31.9164 8.56904 31.9497C8.49023 31.9829 8.40555 32 8.32001 32ZM1.28003 30.72H7.68003V30.08C7.68003 29.5708 7.47774 29.0824 7.11767 28.7224C6.7576 28.3623 6.26923 28.16 5.76002 28.16H3.20002C2.94788 28.16 2.69822 28.2097 2.46527 28.3062C2.23233 28.4026 2.02066 28.5441 1.84237 28.7224C1.66408 28.9006 1.52266 29.1123 1.42618 29.3453C1.32969 29.5782 1.28003 29.8279 1.28003 30.08V30.72Z" fill="#5E6671"/>
<path d="M16.0008 6.4C15.3679 6.4 14.7492 6.21233 14.223 5.86071C13.6967 5.50909 13.2866 5.00932 13.0444 4.42459C12.8022 3.83987 12.7388 3.19645 12.8623 2.57571C12.9857 1.95497 13.2905 1.3848 13.738 0.937269C14.1856 0.489741 14.7558 0.18496 15.3765 0.0614875C15.9972 -0.0619852 16.6406 0.0013894 17.2254 0.24359C17.8101 0.48579 18.3099 0.895939 18.6615 1.42218C19.0131 1.94841 19.2008 2.5671 19.2008 3.2C19.2008 4.04869 18.8636 4.86263 18.2635 5.46275C17.6634 6.06286 16.8495 6.4 16.0008 6.4ZM16.0008 1.28001C15.621 1.28001 15.2498 1.39261 14.9341 1.60359C14.6183 1.81456 14.3723 2.11442 14.2269 2.46525C14.0816 2.81609 14.0436 3.20213 14.1177 3.57457C14.1918 3.94702 14.3746 4.28914 14.6431 4.55765C14.9116 4.82617 15.2538 5.00903 15.6262 5.08311C15.9987 5.1572 16.3847 5.11918 16.7355 4.97386C17.0864 4.82854 17.3862 4.58245 17.5972 4.26671C17.8082 3.95097 17.9208 3.57974 17.9208 3.2C17.9231 2.9464 17.8751 2.69485 17.7797 2.45989C17.6842 2.22493 17.5431 2.01121 17.3646 1.83107C17.1861 1.65093 16.9737 1.50793 16.7396 1.41035C16.5055 1.31277 16.2544 1.26254 16.0008 1.26255V1.28001Z" fill="#5E6671"/>
<path d="M19.8395 10.2401C19.7555 10.2401 19.6723 10.2236 19.5946 10.1914C19.517 10.1592 19.4464 10.1121 19.387 10.0527C19.3276 9.99323 19.2804 9.92268 19.2483 9.84503C19.2161 9.76738 19.1995 9.68415 19.1995 9.60011V8.32012C19.1995 7.8109 18.9972 7.32253 18.6372 6.96246C18.2771 6.60239 17.7888 6.40011 17.2795 6.40011H14.7195C14.2103 6.40011 13.722 6.60239 13.3619 6.96246C13.0018 7.32253 12.7995 7.8109 12.7995 8.32012V9.60011C12.7995 9.76984 12.7321 9.93264 12.6121 10.0527C12.4921 10.1727 12.3293 10.2401 12.1595 10.2401C11.9898 10.2401 11.827 10.1727 11.707 10.0527C11.587 9.93264 11.5195 9.76984 11.5195 9.60011V8.32012C11.5211 7.4719 11.8587 6.65886 12.4585 6.05907C13.0583 5.45929 13.8713 5.12166 14.7195 5.12012H17.2795C18.1278 5.12166 18.9408 5.45929 19.5406 6.05907C20.1404 6.65886 20.478 7.4719 20.4795 8.32012V9.60011C20.4795 9.76984 20.4121 9.93264 20.2921 10.0527C20.1721 10.1727 20.0093 10.2401 19.8395 10.2401Z" fill="#5E6671"/>
</g>
<defs>
<clipPath id="clip0_1827_700">
<rect width="32" height="32" fill="white"/>
</clipPath>
</defs>
</svg>
