<svg width="23" height="32" viewBox="0 0 23 32" fill="none" xmlns="http://www.w3.org/2000/svg">
<g clip-path="url(#clip0_1827_670)">
<path d="M19.0462 17.9357C20.4417 16.3559 21.3436 14.4051 21.6413 12.3226C21.939 10.2401 21.6197 8.11634 20.7223 6.21184C19.825 4.30733 18.3887 2.70485 16.5897 1.60089C14.7906 0.496934 12.7069 -0.0604915 10.5942 -0.00304815C8.48144 0.0543952 6.43143 0.724215 4.69561 1.92428C2.95978 3.12435 1.61356 4.80249 0.822051 6.75291C0.0305386 8.70333 -0.17186 10.8412 0.239668 12.9045C0.651196 14.9677 1.65876 16.8666 3.13881 18.3682L0.075383 28.4386C-0.0138679 28.6395 -0.0409926 28.8622 -0.00251902 29.0784C0.0359545 29.2947 0.138289 29.4946 0.291406 29.6527C0.444523 29.8108 0.641486 29.92 0.857187 29.9662C1.07289 30.0125 1.29753 29.9937 1.50247 29.9124L4.01869 29.2663C4.25447 29.2243 4.49699 29.2403 4.72514 29.3129C4.95329 29.3855 5.16017 29.5124 5.32776 29.6828L6.88364 31.5035C6.99571 31.6488 7.13824 31.768 7.30131 31.8528C7.46439 31.9377 7.64409 31.9861 7.8279 31.9948C7.89383 32.0027 7.96047 32.0027 8.0264 31.9948C8.23718 31.941 8.42891 31.8302 8.58039 31.6747C8.73188 31.5192 8.83722 31.3251 8.8848 31.1138L11.2723 23.2593L14.3572 30.7934C14.4238 30.9999 14.546 31.1843 14.7106 31.3265C14.8752 31.4686 15.0758 31.5631 15.2907 31.5997H15.4034C15.6021 31.5891 15.7954 31.5305 15.9664 31.4292C16.1374 31.3278 16.2811 31.1866 16.3851 31.0176L17.764 29.058C17.9167 28.8733 18.1122 28.7282 18.3337 28.6352C18.5551 28.5422 18.7959 28.5041 19.0355 28.5241L21.6 28.9405C21.8115 29 22.036 28.9959 22.2452 28.9289C22.4544 28.8619 22.6391 28.7348 22.776 28.5637C22.913 28.3926 22.9961 28.1851 23.015 27.9672C23.0339 27.7492 22.9877 27.5306 22.8822 27.3387L19.0462 17.9357ZM10.8913 1.06803C12.8283 1.06697 14.7221 1.63773 16.3331 2.70809C17.9441 3.77845 19.1998 5.3003 19.9416 7.08113C20.6833 8.86196 20.8777 10.8217 20.5001 12.7125C20.1224 14.6033 19.1898 16.3401 17.8202 17.7033C16.4505 19.0664 14.7054 19.9946 12.8055 20.3705C10.9057 20.7463 8.93661 20.5529 7.14728 19.8146C5.35795 19.0764 3.82883 17.8266 2.75336 16.2233C1.67789 14.6199 1.1044 12.7352 1.10546 10.8074C1.10972 8.22566 2.1421 5.75087 3.97638 3.9253C5.81066 2.09973 8.29726 1.07226 10.8913 1.06803ZM7.86009 30.7827C7.86009 30.8414 7.81715 30.8842 7.80642 30.9108C7.76835 30.8834 7.73408 30.8511 7.70448 30.8147L6.14863 28.9886C5.84754 28.6669 5.46804 28.4281 5.04694 28.2952C4.62583 28.1624 4.17739 28.14 3.74506 28.2304L1.23422 28.9085C1.14302 28.9085 1.09474 28.9085 1.07328 28.9352C1.06406 28.8822 1.06406 28.828 1.07328 28.775L3.9865 19.1958C5.85017 20.7207 8.17358 21.5798 10.5855 21.636V21.6894L7.86009 30.7827ZM21.7609 27.8673L19.1911 27.4562C18.7528 27.4049 18.3086 27.468 17.9022 27.6393C17.4959 27.8106 17.1413 28.0843 16.8734 28.4333L15.4999 30.3876C15.4731 30.4276 15.4406 30.4636 15.4034 30.4944C15.3773 30.456 15.3558 30.4148 15.339 30.3715L11.7605 21.6093V21.5773C14.1614 21.383 16.4279 20.3943 18.1985 18.7687L21.8629 27.7231C21.8951 27.8032 21.9004 27.8566 21.9112 27.8726C21.8612 27.8794 21.8103 27.8776 21.7609 27.8673Z" fill="#5E6671"/>
<path d="M10.8909 18.4109H10.9284C12.8995 18.3645 14.7745 17.5541 16.154 16.1522C17.5336 14.7503 18.3087 12.8678 18.3143 10.9056C18.3199 8.94334 17.5555 7.05647 16.184 5.64683C14.8125 4.23719 12.9421 3.41616 10.9714 3.35864H10.8909C8.8846 3.35864 6.96047 4.15185 5.54181 5.56377C4.12315 6.97569 3.32617 8.89067 3.32617 10.8874C3.32617 12.8842 4.12315 14.7992 5.54181 16.2111C6.96047 17.623 8.8846 18.4162 10.8909 18.4162V18.4109ZM10.8426 4.42123H10.9231C12.6118 4.46956 14.215 5.17117 15.3923 6.37704C16.5696 7.58292 17.2282 9.19804 17.2282 10.8794C17.2282 12.5608 16.5696 14.1759 15.3923 15.3818C14.215 16.5877 12.6118 17.2893 10.9231 17.3376H10.8694C9.14773 17.3412 7.4951 16.6639 6.27515 15.4547C5.0552 14.2456 4.36787 12.6036 4.36431 10.8901C4.36075 9.17657 5.04127 7.53181 6.25619 6.31766C7.47111 5.10351 9.12091 4.41942 10.8426 4.41588V4.42123Z" fill="#5E6671"/>
<path d="M10.3216 14.7319H11.8613V7.36328H11.0941L9.25391 8.24431V9.29086L10.3216 9.09864V14.7319Z" fill="#5E6671"/>
</g>
<defs>
<clipPath id="clip0_1827_670">
<rect width="23" height="32" fill="white"/>
</clipPath>
</defs>
</svg>
