<svg width="204" height="30" viewBox="0 0 204 30" fill="none" xmlns="http://www.w3.org/2000/svg">
<path fill-rule="evenodd" clip-rule="evenodd" d="M175.707 0.292893C175.317 -0.0976311 174.683 -0.0976311 174.293 0.292893C173.902 0.683418 173.902 1.31658 174.293 1.70711L200.586 28L1 28C0.447715 28 0 28.4477 0 29C0 29.5523 0.447715 30 1 30L203 30C203.256 30 203.512 29.9024 203.707 29.7071C203.902 29.5119 204 29.256 204 29.0002C204 29.0001 204 29.0001 204 29C204 28.7441 203.902 28.4882 203.707 28.2929L175.707 0.292893Z" fill="white" fill-opacity="0.2"/>
</svg>
