<svg width="85" height="68" viewBox="0 0 85 68" fill="none" xmlns="http://www.w3.org/2000/svg">
<g opacity="0.5" clip-path="url(#clip0_1834_2164)">
<path d="M42.4841 18.1021C42.2623 18.1007 42.0464 18.0301 41.8667 17.9002C40.0758 16.7309 38.0065 16.0559 35.8692 15.9439C33.732 15.8319 31.6032 16.287 29.6995 17.2629C29.4468 17.3881 29.1546 17.4081 28.8872 17.3185C28.6197 17.2288 28.3988 17.0369 28.2731 16.7848C28.2113 16.6593 28.175 16.5228 28.1662 16.3833C28.1574 16.2437 28.1763 16.1038 28.2218 15.9716C28.2672 15.8393 28.3384 15.7173 28.4313 15.6126C28.5241 15.5079 28.6368 15.4225 28.7627 15.3613C31.0072 14.197 33.5247 13.6585 36.0501 13.8025C38.5755 13.9465 41.0152 14.7675 43.1122 16.1793C43.3383 16.345 43.4897 16.593 43.5336 16.8695C43.5774 17.146 43.5102 17.4287 43.3463 17.6559C43.2484 17.7932 43.1191 17.9053 42.9692 17.9829C42.8193 18.0605 42.653 18.1013 42.4841 18.1021Z" fill="white"/>
<path d="M62.5399 48.8356C62.3999 48.8364 62.261 48.8096 62.1313 48.7567C62.0016 48.7039 61.8836 48.6259 61.7841 48.5275C61.5859 48.3284 61.4746 48.0592 61.4746 47.7786C61.4746 47.4979 61.5859 47.2286 61.7841 47.0296L66.0421 42.7803C68.8311 39.9969 69.9169 34.2816 68.4266 30.3085C68.3682 30.1761 68.3373 30.0333 68.3361 29.8887C68.3349 29.744 68.3633 29.6007 68.4195 29.4674C68.4757 29.3341 68.5587 29.2137 68.6632 29.1135C68.7677 29.0133 68.8916 28.9355 69.0274 28.8848C69.1631 28.8341 69.3078 28.8116 69.4525 28.8186C69.5973 28.8257 69.739 28.8622 69.8691 28.9259C69.9993 28.9895 70.115 29.079 70.2093 29.1889C70.3035 29.2988 70.3743 29.4267 70.4172 29.5648C72.2056 34.3135 70.9175 40.9212 67.5431 44.2888L63.2851 48.5381C63.0851 48.7305 62.8177 48.8372 62.5399 48.8356Z" fill="white"/>
<path d="M49.6379 64.2819C48.6416 64.2783 47.6695 63.9747 46.8489 63.4108C46.6249 63.2521 46.471 63.0132 46.4194 62.744C46.3678 62.4747 46.4225 62.196 46.5721 61.966C46.7316 61.7336 46.9771 61.5739 47.2546 61.5221C47.5321 61.4703 47.8189 61.5306 48.0518 61.6898C48.531 62.0409 49.1171 62.2158 49.7108 62.1849C50.3045 62.1539 50.8692 61.919 51.3091 61.5199C51.7662 61.0015 52.001 60.3248 51.9632 59.6354C51.9254 58.946 51.6179 58.299 51.1069 57.8335L39.6103 46.371C39.412 46.1719 39.3008 45.9027 39.3008 45.622C39.3008 45.3414 39.412 45.0721 39.6103 44.873L39.6955 44.7881C39.8938 44.5918 40.1614 44.4812 40.4406 44.48C40.7199 44.4812 40.9875 44.5918 41.1858 44.7881L52.7142 56.2931C53.2265 56.8159 53.9195 57.1237 54.6516 57.1536C54.9746 57.176 55.2986 57.1288 55.6017 57.0151C55.9047 56.9015 56.1798 56.7241 56.4081 56.495C56.6256 56.2756 56.7969 56.0151 56.9121 55.7286C57.0273 55.4422 57.0839 55.1358 57.0787 54.8272C57.0656 54.0659 56.7519 53.3405 56.2058 52.8087L44.688 41.3036C44.5882 41.2049 44.509 41.0873 44.455 40.9579C44.4009 40.8284 44.3731 40.6896 44.3731 40.5494C44.3731 40.4092 44.4009 40.2703 44.455 40.1408C44.509 40.0114 44.5882 39.8939 44.688 39.7951C44.8912 39.5868 45.1666 39.4641 45.4577 39.4523C45.7487 39.4404 46.0333 39.5403 46.2528 39.7314L57.5152 50.9709C58.0294 51.4923 58.7204 51.803 59.4525 51.842C59.7773 51.8571 60.1017 51.8056 60.4057 51.6904C60.7097 51.5753 60.9867 51.3991 61.2196 51.1727C61.4477 50.9417 61.6245 50.6652 61.7382 50.3613C61.8519 50.0574 61.9001 49.733 61.8796 49.4092C61.8491 48.6818 61.5405 47.9938 61.0173 47.4864L43.1764 29.6817C43.0766 29.5829 42.9974 29.4654 42.9434 29.336C42.8893 29.2065 42.8615 29.0677 42.8615 28.9274C42.8615 28.7872 42.8893 28.6483 42.9434 28.5189C42.9974 28.3894 43.0766 28.2719 43.1764 28.1732C43.3758 27.9753 43.6456 27.8643 43.9269 27.8643C44.2081 27.8643 44.4779 27.9753 44.6773 28.1732L62.5396 45.9566C63.4476 46.8404 63.981 48.0382 64.0299 49.303C64.0622 49.9193 63.9641 50.5354 63.7421 51.1114C63.5202 51.6874 63.1792 52.2102 62.7415 52.6461C62.3037 53.082 61.779 53.421 61.2013 53.6412C60.6237 53.8614 60.0061 53.9578 59.3886 53.9242H59.1438C59.2043 54.2141 59.2328 54.5098 59.229 54.8059C59.2372 55.3959 59.1276 55.9816 58.9064 56.5288C58.6853 57.076 58.357 57.5737 57.9409 57.9929C57.5042 58.4307 56.9797 58.7715 56.4019 58.993C55.824 59.2145 55.2059 59.3117 54.5878 59.2783C54.413 59.2711 54.2388 59.2534 54.0662 59.2252C54.1646 59.912 54.1034 60.6122 53.8875 61.2716C53.6715 61.931 53.3065 62.5321 52.8207 63.0284C52.3993 63.4366 51.9011 63.7575 51.3548 63.9727C50.8086 64.1878 50.225 64.2929 49.6379 64.2819Z" fill="white"/>
<path d="M22.2484 48.6656C22.1084 48.6664 21.9695 48.6396 21.8398 48.5867C21.7101 48.5339 21.5921 48.456 21.4927 48.3575L17.4369 44.31C14.0731 40.9424 12.7851 34.3453 14.5628 29.5861C14.6057 29.4479 14.6765 29.32 14.7708 29.2102C14.865 29.1003 14.9807 29.0108 15.1109 28.9471C15.241 28.8834 15.3827 28.8469 15.5275 28.8399C15.6722 28.8328 15.8169 28.8554 15.9526 28.9061C16.0884 28.9568 16.2123 29.0346 16.3168 29.1347C16.4213 29.2349 16.5043 29.3554 16.5605 29.4886C16.6167 29.6219 16.6451 29.7653 16.6439 29.9099C16.6427 30.0545 16.6119 30.1974 16.5534 30.3297C15.0631 34.3135 16.1595 40.0288 18.9485 42.8015L23.0042 46.849C23.104 46.9478 23.1832 47.0652 23.2373 47.1947C23.2913 47.3241 23.3191 47.463 23.3191 47.6032C23.3191 47.7435 23.2913 47.8823 23.2373 48.0118C23.1832 48.1412 23.104 48.2588 23.0042 48.3575C22.9048 48.456 22.7868 48.5339 22.6571 48.5867C22.5274 48.6396 22.3885 48.6664 22.2484 48.6656Z" fill="white"/>
<path d="M12.3171 34.2603C12.1762 34.2597 12.0369 34.2312 11.9072 34.1765C11.7774 34.1218 11.6598 34.0419 11.5613 33.9416L0.309558 22.7233C0.111294 22.5243 0 22.255 0 21.9744C0 21.6937 0.111294 21.4245 0.309558 21.2254L21.2376 0.350555C21.437 0.152694 21.7068 0.041626 21.988 0.041626C22.2692 0.041626 22.539 0.152694 22.7385 0.350555L33.9902 11.5794C34.09 11.6782 34.1692 11.7957 34.2232 11.9251C34.2773 12.0546 34.3051 12.1934 34.3051 12.3337C34.3051 12.4739 34.2773 12.6128 34.2232 12.7422C34.1692 12.8717 34.09 12.9892 33.9902 13.0879L13.0622 33.9628C12.8622 34.1552 12.5948 34.2619 12.3171 34.2603ZM2.56628 21.9691L12.3171 31.6894L31.7335 12.3124L21.9933 2.59206L2.56628 21.9691Z" fill="white"/>
<path d="M34.8613 37.0755C33.7045 37.0871 32.5704 36.7544 31.6038 36.12C30.6372 35.4856 29.8819 34.5783 29.4342 33.5137C28.9865 32.4491 28.8667 31.2756 29.0901 30.1428C29.3135 29.0099 29.8699 27.9692 30.6885 27.1534L40.5031 17.348C44.3353 13.5236 50.7968 12.7056 56.2151 15.3827C56.3446 15.4421 56.4609 15.5268 56.557 15.6319C56.6531 15.737 56.7271 15.8602 56.7746 15.9944C56.822 16.1285 56.842 16.2708 56.8333 16.4128C56.8246 16.5548 56.7874 16.6936 56.7239 16.821C56.6605 16.9484 56.572 17.0618 56.4638 17.1544C56.3556 17.247 56.2299 17.317 56.094 17.3602C55.9582 17.4034 55.8151 17.4189 55.6732 17.4059C55.5312 17.3929 55.3933 17.3515 55.2677 17.2843C50.6584 15.0109 45.2082 15.6589 42.0041 18.8565L32.1681 28.6831C31.8241 29.0229 31.5509 29.4274 31.3645 29.8733C31.1781 30.3191 31.0822 30.7974 31.0822 31.2805C31.0822 31.7636 31.1781 32.2419 31.3645 32.6877C31.5509 33.1335 31.8241 33.5381 32.1681 33.8779C32.5188 34.2225 32.9347 34.4939 33.3916 34.6763C33.8485 34.8587 34.3373 34.9485 34.8294 34.9402C35.3096 34.9433 35.7856 34.8509 36.2297 34.6685C36.6738 34.4861 37.0771 34.2174 37.4161 33.8779L44.5695 26.739C44.6685 26.6395 44.7862 26.5604 44.9159 26.5065C45.0456 26.4525 45.1848 26.4248 45.3253 26.4248C45.4658 26.4248 45.6049 26.4525 45.7347 26.5065C45.8644 26.5604 45.9821 26.6395 46.0811 26.739C46.2794 26.9381 46.3906 27.2073 46.3906 27.488C46.3906 27.7686 46.2794 28.0379 46.0811 28.2369L38.917 35.4077C38.384 35.938 37.7514 36.3583 37.0555 36.6445C36.3596 36.9307 35.614 37.0772 34.8613 37.0755Z" fill="white"/>
<path d="M72.6624 34.2603C72.5216 34.2597 72.3823 34.2312 72.2525 34.1765C72.1228 34.1218 72.0052 34.042 71.9066 33.9416L50.9787 13.0986C50.88 12.9993 50.8019 12.8816 50.7489 12.7522C50.696 12.6228 50.6691 12.4842 50.6699 12.3443C50.6691 12.2045 50.696 12.0659 50.7489 11.9365C50.8019 11.8071 50.88 11.6893 50.9787 11.5901L62.2516 0.350584C62.3511 0.252126 62.4691 0.174242 62.5988 0.121376C62.7285 0.0685091 62.8673 0.0416899 63.0074 0.0424982C63.1475 0.0416899 63.2864 0.0685091 63.4161 0.121376C63.5458 0.174242 63.6638 0.252126 63.7633 0.350584L84.6806 21.2361C84.7803 21.3348 84.8596 21.4523 84.9136 21.5818C84.9677 21.7112 84.9955 21.8501 84.9955 21.9903C84.9955 22.1306 84.9677 22.2694 84.9136 22.3989C84.8596 22.5283 84.7803 22.6458 84.6806 22.7446L73.4182 33.9841C73.2122 34.1713 72.9409 34.2705 72.6624 34.2603ZM53.2354 12.3125L72.6624 31.6894L82.4238 21.9478L63.0074 2.56022L53.2354 12.3125Z" fill="white"/>
<path d="M41.6956 67.9893C41.1042 67.9988 40.517 67.8899 39.9685 67.6691C39.42 67.4483 38.9214 67.1202 38.5021 66.704C37.6417 65.7894 37.1789 64.5721 37.2148 63.3182C37.2507 62.0642 37.7824 60.8753 38.6937 60.0112L41.3017 57.4191C41.6978 57.0016 42.1747 56.6686 42.7034 56.4403C43.2322 56.2121 43.802 56.0933 44.3781 56.0912C44.9965 56.1026 45.6065 56.2363 46.1729 56.4842C46.7393 56.7322 47.2508 57.0897 47.678 57.536C48.5397 58.4507 49.0023 59.6692 48.9644 60.9241C48.9265 62.1789 48.3911 63.3675 47.4758 64.2287L45.1977 66.5021C44.2696 67.4351 43.0128 67.9688 41.6956 67.9893ZM44.41 58.2159C44.1147 58.218 43.8231 58.2815 43.5537 58.4022C43.2843 58.5229 43.0431 58.6983 42.8452 58.917L40.2372 61.5198C39.7237 61.9837 39.4145 62.6312 39.3766 63.3214C39.3387 64.0116 39.5753 64.6889 40.0349 65.206C40.5611 65.6471 41.2357 65.8717 41.9218 65.8342C42.6079 65.7967 43.254 65.4999 43.7287 65.0042L46.0068 62.7308C46.5178 62.2653 46.8253 61.6183 46.8631 60.9289C46.9009 60.2395 46.666 59.5628 46.209 59.0445C45.7525 58.5467 45.1174 58.2488 44.442 58.2159H44.41Z" fill="white"/>
<path d="M29.7315 59.6713C29.1404 59.6795 28.5535 59.5701 28.0052 59.3494C27.4568 59.1287 26.9581 58.8011 26.5381 58.3859C25.679 57.4699 25.2182 56.2518 25.2561 54.9978C25.294 53.7439 25.8276 52.5558 26.7403 51.6932L31.6477 46.7958C32.5836 45.8551 33.8535 45.3207 35.1818 45.3085C35.7683 45.3057 36.3496 45.4189 36.892 45.6416C37.4344 45.8643 37.9272 46.1921 38.3419 46.606C38.7567 47.0199 39.0851 47.5117 39.3082 48.053C39.5314 48.5943 39.6448 49.1744 39.642 49.7597C39.6303 51.0885 39.0949 52.3593 38.1517 53.2973L33.2444 58.184C32.3137 59.1196 31.0524 59.6536 29.7315 59.6713ZM35.2031 47.4332C34.4368 47.4446 33.706 47.7577 33.1699 48.3043L28.2625 53.191C27.7506 53.6565 27.4433 54.3047 27.4074 54.9949C27.3715 55.6851 27.61 56.3616 28.0709 56.8774C28.2888 57.0941 28.548 57.265 28.8333 57.3799C29.1185 57.4949 29.424 57.5516 29.7315 57.5466C30.4951 57.5324 31.2237 57.2241 31.7647 56.6861L36.6614 51.7887C37.2091 51.2537 37.5228 50.5245 37.5343 49.7597C37.5387 49.4528 37.4816 49.1481 37.3665 48.8636C37.2513 48.579 37.0804 48.3202 36.8637 48.1025C36.4209 47.6686 35.8236 47.4279 35.2031 47.4332Z" fill="white"/>
<path d="M35.4265 64.0906C34.8354 64.0976 34.2489 63.9877 33.7007 63.767C33.1526 63.5464 32.6537 63.2194 32.233 62.8051C31.3766 61.8879 30.9174 60.6705 30.9553 59.4173C30.9932 58.1642 31.525 56.9765 32.4352 56.1124L37.1083 51.4488C38.0476 50.5065 39.3214 49.9721 40.6531 49.9616C41.2444 49.9527 41.8314 50.0619 42.3798 50.2826C42.9282 50.5034 43.4269 50.8312 43.8466 51.2469C44.6947 52.064 45.2102 53.165 45.2943 54.3384C45.3221 54.9488 45.2176 55.5581 44.988 56.1246C44.7583 56.6911 44.409 57.2014 43.9637 57.6209L38.9712 62.6033C38.0326 63.5466 36.7584 64.0812 35.4265 64.0906ZM40.6744 52.0862C39.9049 52.0972 39.1706 52.4101 38.6306 52.9573L33.9681 57.6104C33.4514 58.0747 33.1401 58.7243 33.1022 59.4171C33.0643 60.11 33.3029 60.7896 33.7658 61.3073C33.9849 61.5216 34.2446 61.6903 34.5297 61.8034C34.8149 61.9164 35.1197 61.9717 35.4265 61.9659C36.1925 61.9533 36.9229 61.6404 37.4596 61.0948L42.4521 56.1124C42.685 55.9032 42.8687 55.6452 42.9902 55.3569C43.1116 55.0686 43.1678 54.757 43.1547 54.4446C43.1025 53.7991 42.8101 53.1966 42.335 52.7555C41.8858 52.3353 41.29 52.1065 40.6744 52.1181V52.0862Z" fill="white"/>
<path d="M24.6638 54.6146C24.0757 54.6231 23.4919 54.5139 22.9468 54.2932C22.4018 54.0726 21.9067 53.745 21.4908 53.3299C21.0749 52.9149 20.7467 52.4208 20.5256 51.8769C20.3045 51.333 20.195 50.7503 20.2036 50.1634C20.2158 48.8378 20.7513 47.5705 21.6939 46.6364L24.8874 43.4494C25.8233 42.5087 27.0932 41.9743 28.4215 41.9621C29.0088 41.9564 29.5914 42.0677 30.1351 42.2894C30.6788 42.5111 31.1727 42.8387 31.588 43.2532C32.0033 43.6677 32.3317 44.1606 32.5538 44.7032C32.7759 45.2458 32.8874 45.8272 32.8817 46.4133C32.8656 47.7402 32.3263 49.0073 31.3808 49.9403L28.1873 53.1273C27.254 54.0654 25.9884 54.5996 24.6638 54.6146ZM28.4215 44.0974C28.0347 44.0969 27.6518 44.1737 27.2953 44.3233C26.9388 44.4729 26.6159 44.6923 26.3457 44.9685L23.1522 48.1555C22.6055 48.6912 22.292 49.4201 22.2793 50.1846C22.2736 50.4917 22.3299 50.7968 22.445 51.0817C22.5601 51.3666 22.7316 51.6253 22.9493 51.8425C23.1669 52.0597 23.4262 52.2309 23.7117 52.3457C23.9971 52.4606 24.3029 52.5169 24.6106 52.5111C24.9904 52.5071 25.3656 52.4282 25.7146 52.2786C26.0635 52.1291 26.3794 51.9121 26.6438 51.64L29.8373 48.453C30.3833 47.9213 30.697 47.1959 30.7102 46.4346C30.716 45.8121 30.4749 45.2125 30.0395 44.7667C29.6211 44.3547 29.0622 44.1157 28.4747 44.0974H28.4215Z" fill="white"/>
</g>
<defs>
<clipPath id="clip0_1834_2164">
<rect width="85" height="68" fill="white"/>
</clipPath>
</defs>
</svg>
