<svg width="32" height="32" viewBox="0 0 32 32" fill="none" xmlns="http://www.w3.org/2000/svg">
<path d="M10.6654 16L9.95826 15.2929C9.77072 15.4804 9.66536 15.7348 9.66536 16H10.6654ZM22.6654 4L23.3725 3.29289C22.9819 2.90237 22.3488 2.90237 21.9583 3.29289L22.6654 4ZM27.9987 9.33333L28.7058 10.0404C29.0963 9.64992 29.0963 9.01675 28.7058 8.62623L27.9987 9.33333ZM15.9987 21.3333V22.3333C16.2639 22.3333 16.5183 22.228 16.7058 22.0404L15.9987 21.3333ZM10.6654 21.3333H9.66536C9.66536 21.8856 10.1131 22.3333 10.6654 22.3333V21.3333ZM26.6654 26.6667V27.6667C26.9306 27.6667 27.1849 27.5613 27.3725 27.3738C27.56 27.1862 27.6654 26.9319 27.6654 26.6667H26.6654ZM5.33203 26.6667H4.33203C4.33203 27.2189 4.77975 27.6667 5.33203 27.6667L5.33203 26.6667ZM5.33203 5.33333L5.33203 4.33333C4.77975 4.33333 4.33203 4.78105 4.33203 5.33333L5.33203 5.33333ZM15.9987 6.33333C16.551 6.33333 16.9987 5.88562 16.9987 5.33333C16.9987 4.78105 16.551 4.33333 15.9987 4.33333V6.33333ZM27.6654 16C27.6654 15.4477 27.2176 15 26.6654 15C26.1131 15 25.6654 15.4477 25.6654 16H27.6654ZM11.3725 16.7071L23.3725 4.70711L21.9583 3.29289L9.95826 15.2929L11.3725 16.7071ZM21.9583 4.70711L27.2916 10.0404L28.7058 8.62623L23.3725 3.29289L21.9583 4.70711ZM27.2916 8.62623L15.2916 20.6262L16.7058 22.0404L28.7058 10.0404L27.2916 8.62623ZM15.9987 20.3333H10.6654V22.3333H15.9987V20.3333ZM11.6654 21.3333V16H9.66536V21.3333H11.6654ZM17.9583 8.70711L23.2916 14.0404L24.7058 12.6262L19.3725 7.29289L17.9583 8.70711ZM26.6654 25.6667L5.33203 25.6667L5.33203 27.6667L26.6654 27.6667V25.6667ZM6.33203 26.6667L6.33203 5.33333L4.33203 5.33333L4.33203 26.6667H6.33203ZM5.33203 6.33333L15.9987 6.33333V4.33333L5.33203 4.33333L5.33203 6.33333ZM25.6654 16V26.6667H27.6654V16H25.6654Z" fill="white"/>
</svg>
