<svg width="12" height="12" viewBox="0 0 12 12" fill="none" xmlns="http://www.w3.org/2000/svg">
<g clip-path="url(#clip0_1838_6048)">
<path d="M5.99867 0C2.68485 0 -0.00585938 2.1186 -0.00585938 4.73237C-0.00585938 6.42816 1.13274 7.92497 2.8412 8.7593C2.71544 9.22734 2.38802 10.4551 2.32118 10.7151C2.23961 11.0407 2.43447 11.0362 2.57156 10.9491L4.88047 9.38335C5.24911 9.43852 5.62137 9.46611 5.99414 9.46588C9.30796 9.46588 11.9987 7.34614 11.9987 4.73237C11.9987 2.1186 9.31249 0 5.99414 0" fill="white"/>
<path d="M1.81476 3.86141H2.43447C2.43447 3.86141 2.43447 5.5572 2.43447 5.94836C2.43447 6.23664 3.07685 6.24116 3.07685 5.94836V3.8795H3.69089C4.07496 3.8795 4.07609 3.27806 3.69089 3.27693C3.25811 3.27693 1.81249 3.26562 1.81249 3.26562C1.44996 3.26562 1.45109 3.85576 1.81249 3.85576" fill="#333333"/>
<path d="M4.77091 3.97081L5.11078 5.04594H4.39477L4.77091 3.97081ZM4.38571 3.46773C4.2339 3.80123 3.68443 5.37831 3.50203 5.79661C3.37061 6.09959 3.9382 6.34604 4.06849 6.04419L4.19198 5.61233H5.32491C5.32491 5.61233 5.28639 5.63042 5.4382 6.02497C5.56056 6.34491 6.14742 6.12333 6.02506 5.79887C5.85172 5.34666 5.25127 3.69609 5.14251 3.46321C5.09152 3.35015 4.91026 3.2778 4.73578 3.2778C4.66617 3.27156 4.59625 3.28579 4.53465 3.31874C4.47304 3.35168 4.42245 3.40191 4.38911 3.46321" fill="#333333"/>
<path d="M6.2384 3.56306C6.2384 4.09893 6.2384 5.82411 6.2384 5.82411C6.2384 5.82411 6.18855 6.16326 6.48311 6.16326H7.72367C8.0137 6.16326 8.01257 5.54713 7.72367 5.54713H6.90456C6.90456 5.54713 6.90456 3.94857 6.90456 3.5608C6.90456 3.37313 6.73802 3.2793 6.56468 3.2793C6.39135 3.2793 6.23047 3.37313 6.23047 3.56193" fill="#333333"/>
<path d="M8.10055 3.4811C8.10734 3.71625 8.09375 5.84163 8.09375 5.99877C8.09375 6.24749 8.72819 6.24636 8.72706 5.99877V5.16219L8.91399 5.01296L9.72743 6.122C9.89284 6.33793 10.4072 5.94677 10.2463 5.73084L9.38076 4.60032C9.38076 4.60032 9.96762 3.96609 10.1999 3.7366C10.3347 3.60319 9.91663 3.18377 9.78182 3.31717C9.647 3.45057 8.73159 4.36517 8.73159 4.36517C8.73159 4.36517 8.73952 3.7886 8.73159 3.46979C8.73159 3.34883 8.57978 3.29004 8.42683 3.29004C8.27389 3.29004 8.09715 3.35674 8.10055 3.48675" fill="#333333"/>
</g>
<defs>
<clipPath id="clip0_1838_6048">
<rect width="12" height="12" fill="white"/>
</clipPath>
</defs>
</svg>
