<svg width="65" height="68" viewBox="0 0 65 68" fill="none" xmlns="http://www.w3.org/2000/svg">
<g opacity="0.5" clip-path="url(#clip0_1834_2142)">
<path d="M63.9138 67.9998H38.7637C38.4762 67.9998 38.2005 67.8837 37.9972 67.6768C37.7939 67.4699 37.6797 67.1892 37.6797 66.8966V28.5612C37.6797 28.2686 37.7939 27.988 37.9972 27.7811C38.2005 27.5742 38.4762 27.458 38.7637 27.458H63.9138C64.2014 27.458 64.4771 27.5742 64.6804 27.7811C64.8837 27.988 64.9979 28.2686 64.9979 28.5612V66.8966C64.9979 67.1892 64.8837 67.4699 64.6804 67.6768C64.4771 67.8837 64.2014 67.9998 63.9138 67.9998ZM39.8478 65.7935H62.8298V29.6644H39.8478V65.7935Z" fill="white"/>
<path d="M49.1173 52.5776H44.8027V57.4537H49.1173V52.5776Z" fill="white"/>
<path d="M57.8888 52.5775H53.5742V57.4536H57.8888V52.5775Z" fill="white"/>
<path d="M49.1173 44.0502H44.8027V48.9262H49.1173V44.0502Z" fill="white"/>
<path d="M57.8888 44.0499H53.5742V48.926H57.8888V44.0499Z" fill="white"/>
<path d="M49.1173 35.5222H44.8027V40.3983H49.1173V35.5222Z" fill="white"/>
<path d="M57.8888 35.5223H53.5742V40.3984H57.8888V35.5223Z" fill="white"/>
<path d="M13.3126 27.2927H8.99805V32.1688H13.3126V27.2927Z" fill="white"/>
<path d="M22.0841 27.2925H17.7695V32.1685H22.0841V27.2925Z" fill="white"/>
<path d="M13.3126 18.7651H8.99805V23.6412H13.3126V18.7651Z" fill="white"/>
<path d="M22.0841 18.7649H17.7695V23.6409H22.0841V18.7649Z" fill="white"/>
<path d="M13.3126 10.2266H8.99805V15.1026H13.3126V10.2266Z" fill="white"/>
<path d="M22.0841 10.2266H17.7695V15.1026H22.0841V10.2266Z" fill="white"/>
<path d="M30.8517 27.2927H26.5371V32.1688H30.8517V27.2927Z" fill="white"/>
<path d="M30.8517 18.7651H26.5371V23.6412H30.8517V18.7651Z" fill="white"/>
<path d="M13.3126 35.8203H8.99805V40.6964H13.3126V35.8203Z" fill="white"/>
<path d="M22.0841 35.8204H17.7695V40.6965H22.0841V35.8204Z" fill="white"/>
<path d="M30.8517 35.8203H26.5371V40.6964H30.8517V35.8203Z" fill="white"/>
<path d="M30.8517 10.2266H26.5371V15.1026H30.8517V10.2266Z" fill="white"/>
<path d="M38.7658 68H1.08406C0.796546 68 0.520812 67.8838 0.317512 67.6769C0.114212 67.47 0 67.1894 0 66.8968V1.10318C0 0.810598 0.114212 0.530016 0.317512 0.32313C0.520812 0.116244 0.796546 0 1.08406 0H38.7658C39.0533 0 39.3291 0.116244 39.5324 0.32313C39.7357 0.530016 39.8499 0.810598 39.8499 1.10318V66.8968C39.8499 67.1894 39.7357 67.47 39.5324 67.6769C39.3291 67.8838 39.0533 68 38.7658 68ZM2.16811 65.7936H37.6818V2.20636H2.16811V65.7936Z" fill="white"/>
<path d="M25.5202 67.9998H14.3653C14.0778 67.9998 13.8021 67.8836 13.5988 67.6767C13.3955 67.4698 13.2812 67.1892 13.2812 66.8966V51.4521C13.2812 51.1595 13.3955 50.8789 13.5988 50.672C13.8021 50.4651 14.0778 50.3489 14.3653 50.3489H25.5202C25.8077 50.3489 26.0835 50.4651 26.2868 50.672C26.4901 50.8789 26.6043 51.1595 26.6043 51.4521V66.8966C26.6043 67.1892 26.4901 67.4698 26.2868 67.6767C26.0835 67.8836 25.8077 67.9998 25.5202 67.9998ZM15.4819 65.7934H24.4362V52.5552H15.4819V65.7934Z" fill="white"/>
</g>
<defs>
<clipPath id="clip0_1834_2142">
<rect width="65" height="68" fill="white"/>
</clipPath>
</defs>
</svg>
