<svg width="12" height="12" viewBox="0 0 12 12" fill="none" xmlns="http://www.w3.org/2000/svg">
<g clip-path="url(#clip0_1838_6054)">
<path d="M9.60366 1.05529V0.602495C9.60796 0.520809 9.59555 0.439103 9.56719 0.362357C9.53882 0.285611 9.4951 0.215431 9.43868 0.156093C9.38226 0.0967541 9.31433 0.0494998 9.23901 0.0172076C9.1637 -0.0150845 9.08259 -0.0317383 9.00062 -0.0317383C8.91865 -0.0317383 8.83754 -0.0150845 8.76223 0.0172076C8.68692 0.0494998 8.61899 0.0967541 8.56257 0.156093C8.50615 0.215431 8.46242 0.285611 8.43406 0.362357C8.4057 0.439103 8.39329 0.520809 8.39759 0.602495V1.05529H3.60366V0.602495C3.60796 0.520809 3.59555 0.439103 3.56719 0.362357C3.53882 0.285611 3.4951 0.215431 3.43868 0.156093C3.38226 0.0967541 3.31433 0.0494998 3.23902 0.0172076C3.1637 -0.0150845 3.08259 -0.0317383 3.00062 -0.0317383C2.91866 -0.0317383 2.83754 -0.0150845 2.76223 0.0172076C2.68692 0.0494998 2.61899 0.0967541 2.56257 0.156093C2.50615 0.215431 2.46242 0.285611 2.43406 0.362357C2.4057 0.439103 2.39329 0.520809 2.39759 0.602495V1.05529H0V12.0003H12V1.05529H9.60366ZM10.9674 10.8581H1.20025V3.61764H10.9674V10.8581Z" fill="white"/>
<path d="M5.32613 7.08919L6.90234 9.34941H8.20906V5.12695H6.84037V7.38676L5.26375 5.12695H3.95703V9.34941H5.32613V7.08919Z" fill="white"/>
</g>
<defs>
<clipPath id="clip0_1838_6054">
<rect width="12" height="12" fill="white"/>
</clipPath>
</defs>
</svg>
