<svg width="32" height="32" viewBox="0 0 32 32" fill="none" xmlns="http://www.w3.org/2000/svg">
<g clip-path="url(#clip0_1827_678)">
<path d="M30.9824 31.9999H18.9877C18.8506 31.9999 18.7191 31.9452 18.6221 31.8479C18.5252 31.7505 18.4707 31.6184 18.4707 31.4807V13.4405C18.4707 13.3028 18.5252 13.1708 18.6221 13.0734C18.7191 12.9761 18.8506 12.9214 18.9877 12.9214H30.9824C31.1195 12.9214 31.251 12.9761 31.348 13.0734C31.4449 13.1708 31.4994 13.3028 31.4994 13.4405V31.4807C31.4994 31.6184 31.4449 31.7505 31.348 31.8479C31.251 31.9452 31.1195 31.9999 30.9824 31.9999ZM19.5047 30.9616H30.4654V13.9597H19.5047V30.9616Z" fill="#5E6671"/>
<path d="M23.9249 24.7424H21.8672V27.037H23.9249V24.7424Z" fill="#5E6671"/>
<path d="M28.1085 24.7424H26.0508V27.037H28.1085V24.7424Z" fill="#5E6671"/>
<path d="M23.9249 20.7295H21.8672V23.0241H23.9249V20.7295Z" fill="#5E6671"/>
<path d="M28.1085 20.7295H26.0508V23.0241H28.1085V20.7295Z" fill="#5E6671"/>
<path d="M23.9249 16.7163H21.8672V19.0109H23.9249V16.7163Z" fill="#5E6671"/>
<path d="M28.1085 16.7163H26.0508V19.0109H28.1085V16.7163Z" fill="#5E6671"/>
<path d="M6.84872 12.8435H4.79102V15.1381H6.84872V12.8435Z" fill="#5E6671"/>
<path d="M11.0323 12.8435H8.97461V15.1381H11.0323V12.8435Z" fill="#5E6671"/>
<path d="M6.84872 8.83057H4.79102V11.1252H6.84872V8.83057Z" fill="#5E6671"/>
<path d="M11.0323 8.83057H8.97461V11.1252H11.0323V8.83057Z" fill="#5E6671"/>
<path d="M6.84872 4.8125H4.79102V7.10711H6.84872V4.8125Z" fill="#5E6671"/>
<path d="M11.0323 4.8125H8.97461V7.10711H11.0323V4.8125Z" fill="#5E6671"/>
<path d="M15.214 12.8435H13.1562V15.1381H15.214V12.8435Z" fill="#5E6671"/>
<path d="M15.214 8.83057H13.1562V11.1252H15.214V8.83057Z" fill="#5E6671"/>
<path d="M6.84872 16.8567H4.79102V19.1513H6.84872V16.8567Z" fill="#5E6671"/>
<path d="M11.0323 16.8567H8.97461V19.1513H11.0323V16.8567Z" fill="#5E6671"/>
<path d="M15.214 16.8567H13.1562V19.1513H15.214V16.8567Z" fill="#5E6671"/>
<path d="M15.214 4.8125H13.1562V7.10711H15.214V4.8125Z" fill="#5E6671"/>
<path d="M18.9883 32H1.01701C0.879891 32 0.748387 31.9453 0.651429 31.848C0.55447 31.7506 0.5 31.6185 0.5 31.4808V0.519143C0.5 0.381458 0.55447 0.249419 0.651429 0.152061C0.748387 0.0547028 0.879891 0 1.01701 0H18.9883C19.1254 0 19.2569 0.0547028 19.3539 0.152061C19.4509 0.249419 19.5053 0.381458 19.5053 0.519143V31.4808C19.5053 31.6185 19.4509 31.7506 19.3539 31.848C19.2569 31.9453 19.1254 32 18.9883 32ZM1.53402 30.9617H18.4713V1.03829H1.53402V30.9617Z" fill="#5E6671"/>
<path d="M12.671 31.9999H7.351C7.21388 31.9999 7.08237 31.9452 6.98541 31.8479C6.88845 31.7505 6.83398 31.6184 6.83398 31.4808V24.2127C6.83398 24.0751 6.88845 23.943 6.98541 23.8457C7.08237 23.7483 7.21388 23.6936 7.351 23.6936H12.671C12.8082 23.6936 12.9397 23.7483 13.0366 23.8457C13.1336 23.943 13.1881 24.0751 13.1881 24.2127V31.4808C13.1881 31.6184 13.1336 31.7505 13.0366 31.8479C12.9397 31.9452 12.8082 31.9999 12.671 31.9999ZM7.88352 30.9616H12.154V24.7319H7.88352V30.9616Z" fill="#5E6671"/>
</g>
<defs>
<clipPath id="clip0_1827_678">
<rect width="31" height="32" fill="white" transform="translate(0.5)"/>
</clipPath>
</defs>
</svg>
