<svg width="86" height="66" viewBox="0 0 86 66" fill="none" xmlns="http://www.w3.org/2000/svg">
<g opacity="0.5" clip-path="url(#clip0_1834_2314)">
<path d="M84.7816 66H52.2542V63.5433H83.5624V61.0129C83.5624 51.5913 77.8933 44.1843 69.4566 42.5874C69.1749 42.5325 68.9214 42.3792 68.7407 42.1545C68.5601 41.9298 68.4639 41.6482 68.4691 41.3591V38.5707C68.4552 38.3028 68.5288 38.0378 68.6785 37.816C68.8282 37.5942 69.0458 37.4278 69.2982 37.3423C73.2605 36.0157 75.5403 32.3183 75.5403 27.1961C75.5403 24.3618 74.4228 21.6435 72.4336 19.6393C70.4445 17.6352 67.7466 16.5093 64.9335 16.5093C62.1205 16.5093 59.4226 17.6352 57.4334 19.6393C55.4443 21.6435 54.3268 24.3618 54.3268 27.1961C54.3268 32.3183 56.5945 36.0157 60.5567 37.3423C60.8114 37.4256 61.0317 37.591 61.1837 37.813C61.3358 38.0351 61.411 38.3013 61.398 38.5707V41.3714C61.4032 41.6605 61.307 41.9421 61.1264 42.1668C60.9457 42.3915 60.6922 42.5448 60.4104 42.5997C56.5166 43.3081 53.004 45.4002 50.5108 48.4959L48.6211 46.9358C51.2563 43.6668 54.8916 41.3689 58.9596 40.401V39.4428C54.5097 37.5634 51.8885 33.0921 51.8885 27.282C51.8885 23.7961 53.2629 20.453 55.7093 17.9881C58.1557 15.5233 61.4738 14.1385 64.9335 14.1385C68.3933 14.1385 71.7114 15.5233 74.1578 17.9881C76.6042 20.453 77.9786 23.7961 77.9786 27.282C77.9786 33.0799 75.3452 37.5634 70.9075 39.4428V40.401C79.9781 42.5998 86.0007 50.7684 86.0007 61.0375V64.7963C85.9944 65.1178 85.8631 65.4239 85.6352 65.649C85.4072 65.8741 85.1007 66.0001 84.7816 66Z" fill="white"/>
<path d="M52.2535 66H1.21917C0.895823 66 0.585723 65.8705 0.357085 65.6402C0.128447 65.4098 0 65.0974 0 64.7716V59.9442C0 46.8007 7.75391 36.3841 19.4091 33.6817V31.9498C13.7034 29.6404 10.3142 23.9531 10.3142 16.546C10.3142 12.1577 12.0443 7.94919 15.1241 4.84621C18.2038 1.74322 22.3809 0 26.7363 0C31.0918 0 35.2688 1.74322 38.3486 4.84621C41.4283 7.94919 43.1585 12.1577 43.1585 16.546C43.1585 23.9162 39.7814 29.6404 34.0757 31.9498V33.6817C45.7188 36.3841 53.4726 46.8007 53.4726 59.9442V64.7716C53.4726 65.0974 53.3442 65.4098 53.1156 65.6402C52.8869 65.8705 52.5768 66 52.2535 66ZM2.43833 63.5433H51.0343V59.9442C51.0343 47.6605 43.634 37.981 32.6249 35.8928C32.3431 35.8379 32.0896 35.6846 31.909 35.4599C31.7283 35.2352 31.6322 34.9535 31.6374 34.6644V31.0776C31.6235 30.8097 31.697 30.5446 31.8467 30.3228C31.9964 30.101 32.2141 29.9347 32.4664 29.8492C37.6357 28.1172 40.7202 23.1178 40.7202 16.4723C40.7202 12.7356 39.2469 9.15198 36.6244 6.50972C34.0019 3.86745 30.4451 2.38303 26.7363 2.38303C23.0276 2.38303 19.4707 3.86745 16.8483 6.50972C14.2258 9.15198 12.7525 12.7356 12.7525 16.4723C12.7525 23.1301 15.837 28.1295 21.0063 29.8492C21.2609 29.9325 21.4812 30.0979 21.6332 30.3199C21.7853 30.5419 21.8606 30.8082 21.8475 31.0776V34.6767C21.8522 34.9676 21.7543 35.2507 21.5712 35.4756C21.3881 35.7006 21.1318 35.8527 20.8478 35.9051C9.87526 37.9933 2.43833 47.6605 2.43833 59.9564V63.5433Z" fill="white"/>
<path d="M26.7369 48.4835C27.996 48.4835 29.0167 47.4551 29.0167 46.1864C29.0167 44.9178 27.996 43.8894 26.7369 43.8894C25.4778 43.8894 24.457 44.9178 24.457 46.1864C24.457 47.4551 25.4778 48.4835 26.7369 48.4835Z" fill="white"/>
<path d="M26.7369 58.1507C27.996 58.1507 29.0167 57.1223 29.0167 55.8537C29.0167 54.5851 27.996 53.5566 26.7369 53.5566C25.4778 53.5566 24.457 54.5851 24.457 55.8537C24.457 57.1223 25.4778 58.1507 26.7369 58.1507Z" fill="white"/>
</g>
<defs>
<clipPath id="clip0_1834_2314">
<rect width="86" height="66" fill="white"/>
</clipPath>
</defs>
</svg>
