<svg width="34" height="34" viewBox="0 0 34 34" fill="none" xmlns="http://www.w3.org/2000/svg">
<path d="M16.9648 8.29688C11.8044 8.29688 7.62109 11.5953 7.62109 15.6641C7.62109 18.2946 9.36999 20.6028 12.0008 21.9061C11.8577 22.3997 11.0811 25.0816 11.0502 25.2923C11.0502 25.2923 11.0316 25.4506 11.1341 25.5109C11.2366 25.5713 11.3572 25.5244 11.3572 25.5244C11.6511 25.4834 14.7661 23.2953 15.3052 22.9154C15.8439 22.9916 16.3985 23.0312 16.9648 23.0312C22.1253 23.0312 26.3086 19.7329 26.3086 15.6641C26.3086 11.5953 22.1253 8.29688 16.9648 8.29688Z" fill="white"/>
<g clip-path="url(#clip0_1838_6021)">
<path d="M11.0284 14.3627H11.9283C11.9283 14.3627 11.9283 16.504 11.9283 16.9979C11.9283 17.362 12.8611 17.3677 12.8611 16.9979V14.3855H13.7527C14.3105 14.3855 14.3121 13.6261 13.7527 13.6246C13.1243 13.6246 11.0251 13.6104 11.0251 13.6104C10.4986 13.6104 10.5003 14.3555 11.0251 14.3555" fill="#E0E0E0"/>
<path d="M15.3203 14.5009L15.8138 15.8585H14.7741L15.3203 14.5009ZM14.7609 13.8657C14.5405 14.2868 13.7426 16.2782 13.4777 16.8064C13.2868 17.189 14.1111 17.5002 14.3003 17.1191L14.4796 16.5737H16.1247C16.1247 16.5737 16.0688 16.5966 16.2893 17.0948C16.4669 17.4988 17.3191 17.219 17.1414 16.8093C16.8897 16.2383 16.0178 14.154 15.8599 13.86C15.7858 13.7172 15.5226 13.6258 15.2693 13.6258C15.1682 13.618 15.0666 13.6359 14.9772 13.6775C14.8877 13.7191 14.8143 13.7825 14.7658 13.86" fill="#E0E0E0"/>
<path d="M17.451 13.9872C17.451 14.6639 17.451 16.8423 17.451 16.8423C17.451 16.8423 17.3786 17.2706 17.8063 17.2706H19.6078C20.0289 17.2706 20.0273 16.4926 19.6078 16.4926H18.4183C18.4183 16.4926 18.4183 14.474 18.4183 13.9844C18.4183 13.7474 18.1765 13.6289 17.9248 13.6289C17.6731 13.6289 17.4395 13.7474 17.4395 13.9858" fill="#E0E0E0"/>
<path d="M20.1544 13.8829C20.1643 14.1798 20.1445 16.8636 20.1445 17.062C20.1445 17.3761 21.0658 17.3746 21.0642 17.062V16.0056L21.3356 15.8172L22.5168 17.2176C22.757 17.4903 23.5039 16.9963 23.2703 16.7237L22.0134 15.2961C22.0134 15.2961 22.8656 14.4953 23.2029 14.2055C23.3986 14.037 22.7916 13.5074 22.5958 13.6759C22.4 13.8443 21.0708 14.9992 21.0708 14.9992C21.0708 14.9992 21.0823 14.2712 21.0708 13.8686C21.0708 13.7158 20.8503 13.6416 20.6282 13.6416C20.4061 13.6416 20.1495 13.7258 20.1544 13.89" fill="#E0E0E0"/>
</g>
<defs>
<clipPath id="clip0_1838_6021">
<rect width="13" height="4" fill="white" transform="translate(10.5 13.5)"/>
</clipPath>
</defs>
</svg>
