<svg width="46" height="46" viewBox="0 0 46 46" fill="none" xmlns="http://www.w3.org/2000/svg">
<rect width="46" height="46" rx="23" fill="white"/>
<g clip-path="url(#clip0_231_3328)">
<path d="M22.9973 11.5C16.3697 11.5 10.9883 15.9298 10.9883 21.395C10.9883 24.9407 13.2655 28.0704 16.6824 29.8149C16.4309 30.7935 15.776 33.3606 15.6424 33.9043C15.4792 34.5851 15.8689 34.5756 16.1431 34.3936L20.7609 31.1197C21.4982 31.2351 22.2427 31.2928 22.9883 31.2923C29.6159 31.2923 34.9973 26.8601 34.9973 21.395C34.9973 15.9298 29.625 11.5 22.9883 11.5" fill="#371D1E"/>
<path d="M14.6295 19.5739H15.8689C15.8689 19.5739 15.8689 23.1196 15.8689 23.9375C15.8689 24.5403 17.1537 24.5497 17.1537 23.9375V19.6117H18.3818C19.1499 19.6117 19.1522 18.3541 18.3818 18.3518C17.5162 18.3518 14.625 18.3281 14.625 18.3281C13.8999 18.3281 13.9022 19.562 14.625 19.562" fill="#FAE100"/>
<path d="M20.5421 19.8026L21.2218 22.0506H19.7898L20.5421 19.8026ZM19.7717 18.7507C19.468 19.448 18.3691 22.7456 18.0043 23.6202C17.7415 24.2537 18.8767 24.769 19.1372 24.1379L19.3842 23.2349H21.6501C21.6501 23.2349 21.573 23.2727 21.8766 24.0977C22.1214 24.7666 23.2951 24.3033 23.0504 23.6249C22.7037 22.6794 21.5028 19.2282 21.2853 18.7412C21.1833 18.5049 20.8208 18.3536 20.4718 18.3536C20.3326 18.3405 20.1927 18.3703 20.0695 18.4392C19.9463 18.5081 19.8451 18.6131 19.7785 18.7412" fill="#FAE100"/>
<path d="M23.4768 18.9495C23.4768 20.07 23.4768 23.6772 23.4768 23.6772C23.4768 23.6772 23.3771 24.3863 23.9662 24.3863H26.4473C27.0274 24.3863 27.0251 23.098 26.4473 23.098H24.8091C24.8091 23.098 24.8091 19.7556 24.8091 18.9448C24.8091 18.5524 24.476 18.3562 24.1294 18.3562C23.7827 18.3562 23.4609 18.5524 23.4609 18.9472" fill="#FAE100"/>
<path d="M27.1991 18.7781C27.2127 19.2698 27.1855 23.7138 27.1855 24.0424C27.1855 24.5624 28.4544 24.5601 28.4522 24.0424V22.2932L28.826 21.9811L30.4529 24.3C30.7837 24.7515 31.8124 23.9336 31.4907 23.4822L29.7596 21.1183C29.7596 21.1183 30.9333 19.7922 31.3978 19.3124C31.6674 19.0334 30.8313 18.1565 30.5617 18.4354C30.292 18.7143 28.4612 20.6267 28.4612 20.6267C28.4612 20.6267 28.4771 19.4211 28.4612 18.7545C28.4612 18.5016 28.1576 18.3787 27.8517 18.3787C27.5458 18.3787 27.1923 18.5181 27.1991 18.79" fill="#FAE100"/>
</g>
<defs>
<clipPath id="clip0_231_3328">
<rect width="24" height="23" fill="white" transform="translate(11 11.5)"/>
</clipPath>
</defs>
</svg>
