<svg width="821" height="252" viewBox="0 0 821 252" fill="none" xmlns="http://www.w3.org/2000/svg">
<g clip-path="url(#clip0_195_917)">
<path opacity="0.1" d="M176.03 230.19C165.397 230.19 157.47 226.613 152.25 219.46C147.223 212.113 143.937 203.123 142.39 192.49C141.423 184.757 139.877 177.023 137.75 169.29C135.817 161.557 132.627 154.5 128.18 148.12C123.927 141.547 117.837 136.327 109.91 132.46C102.177 128.593 92.0267 126.66 79.46 126.66H66.99V188.43C66.99 197.903 67.6667 204.767 69.02 209.02C70.3733 213.08 72.8867 215.787 76.56 217.14C80.2333 218.3 85.3567 219.267 91.93 220.04L97.73 220.62V227.87L54.81 227H54.52L11.6 227.87V220.62L17.4 220.04C24.1667 219.267 29.29 218.3 32.77 217.14C36.4433 215.787 38.9567 213.08 40.31 209.02C41.6633 204.767 42.34 197.903 42.34 188.43V59.67C42.34 50.0033 41.6633 43.14 40.31 39.08C38.9567 35.02 36.4433 32.41 32.77 31.25C29.29 29.8967 24.1667 28.8333 17.4 28.06L11.6 27.48V20.23L54.52 21.1H95.12C108.267 21.1 120.447 22.6467 131.66 25.74C142.873 28.64 151.863 33.7633 158.63 41.11C165.59 48.4567 169.07 58.7033 169.07 71.85C169.07 83.45 166.46 92.9233 161.24 100.27C156.213 107.423 149.447 112.933 140.94 116.8C132.627 120.473 123.54 123.083 113.68 124.63C127.987 125.597 139.587 130.527 148.48 139.42C157.567 148.12 163.367 160.977 165.88 177.99C167.62 188.817 169.747 197.323 172.26 203.51C174.967 209.503 177.867 213.757 180.96 216.27C184.247 218.59 187.533 219.75 190.82 219.75C192.947 219.75 194.977 219.363 196.91 218.59C199.037 217.817 200.873 217.043 202.42 216.27L204.45 223.52C201.357 225.067 197.2 226.517 191.98 227.87C186.76 229.417 181.443 230.19 176.03 230.19ZM95.7 28.64H66.99V118.83H91.35C109.91 118.83 122.863 115.06 130.21 107.52C137.75 99.98 141.52 88.67 141.52 73.59C141.52 59.2833 138.137 48.2633 131.37 40.53C124.603 32.6033 112.713 28.64 95.7 28.64ZM195.841 227.87V220.62L201.641 220.04C208.407 219.267 213.531 218.3 217.011 217.14C220.684 215.787 223.197 213.08 224.551 209.02C225.904 204.767 226.581 197.903 226.581 188.43V59.67C226.581 50.0033 225.904 43.14 224.551 39.08C223.197 35.02 220.684 32.41 217.011 31.25C213.531 29.8967 208.407 28.8333 201.641 28.06L195.841 27.48V20.23L238.761 21.1H351.281L351.861 41.98L354.181 68.66H347.221C345.867 59.96 344.031 53 341.711 47.78C339.584 42.56 336.491 38.6933 332.431 36.18C328.371 33.4733 322.861 31.7333 315.901 30.96C309.134 29.9933 300.337 29.51 289.511 29.51H251.231V114.48H283.711C287.577 114.48 290.961 113.61 293.861 111.87C296.761 109.937 299.081 106.457 300.821 101.43C302.754 96.4033 303.914 89.1533 304.301 79.68H311.551L310.681 118.54L311.551 161.46H304.301C304.301 147.347 302.561 137.39 299.081 131.59C295.601 125.597 290.477 122.6 283.711 122.6H251.231V195.97C251.231 205.25 253.261 211.437 257.321 214.53C261.381 217.43 268.921 218.88 279.941 218.88H306.911C318.124 218.88 326.824 217.623 333.011 215.11C339.391 212.597 344.127 207.57 347.221 200.03C350.314 192.297 352.441 180.987 353.601 166.1H360.851L358.821 200.9L357.951 227H238.761L195.841 227.87ZM350.821 227.87V220.62L353.431 220.33C360.197 219.363 365.707 218.01 369.961 216.27C374.407 214.53 378.177 211.727 381.271 207.86C384.557 203.8 387.651 198.29 390.551 191.33L460.731 21.1H470.591L539.031 191.33C542.897 200.803 547.054 207.763 551.501 212.21C555.947 216.657 562.037 219.267 569.771 220.04L575.571 220.62V227.87L539.611 227L493.211 227.87V220.62L499.011 220.04C505.777 219.267 510.611 217.817 513.511 215.69C516.411 213.563 517.861 210.567 517.861 206.7C517.861 202.833 516.507 197.613 513.801 191.04L498.721 153.34H416.941L401.281 191.04C399.927 194.52 398.767 197.71 397.801 200.61C396.834 203.317 396.351 205.733 396.351 207.86C396.351 211.533 397.897 214.337 400.991 216.27C404.277 218.203 409.594 219.46 416.941 220.04L422.741 220.62V227.87L385.911 227L350.821 227.87ZM420.711 144.06H495.241L458.701 52.13L420.711 144.06ZM565.455 227.87V220.62L571.255 220.04C578.021 219.267 583.145 218.3 586.625 217.14C590.298 215.98 592.811 213.273 594.165 209.02C595.518 204.767 596.195 197.903 596.195 188.43V59.67C596.195 50.0033 595.518 43.14 594.165 39.08C592.811 34.8267 590.298 32.12 586.625 30.96C583.145 29.6067 578.021 28.64 571.255 28.06L565.455 27.48V20.23L608.955 21.1L646.365 20.23V26.9L641.725 27.48C636.118 28.06 631.768 28.93 628.675 30.09C625.775 31.25 623.745 33.7633 622.585 37.63C621.425 41.3033 620.845 47.49 620.845 56.19V177.12C620.845 186.593 621.328 194.423 622.295 200.61C623.455 206.797 626.451 211.34 631.285 214.24C636.118 217.14 643.948 218.59 654.775 218.59H676.525C693.345 218.59 705.428 214.143 712.775 205.25C720.315 196.163 724.761 183.113 726.115 166.1H732.495L729.595 227.87L608.375 227L565.455 227.87Z" fill="white"/>
</g>
<defs>
<clipPath id="clip0_195_917">
<rect width="821" height="252" fill="white"/>
</clipPath>
</defs>
</svg>
