<svg width="34" height="34" viewBox="0 0 34 34" fill="none" xmlns="http://www.w3.org/2000/svg">
<path d="M23.4977 8.48438H10.1522C9.74714 8.48524 9.34622 8.56649 8.97232 8.72349C8.59842 8.8805 8.25886 9.11018 7.97305 9.39942C7.68723 9.68866 7.46075 10.0318 7.30653 10.4092C7.15231 10.7867 7.07338 11.191 7.07423 11.5992V18.9921C7.07295 19.4004 7.15159 19.805 7.30565 20.1826C7.45972 20.5602 7.68619 20.9035 7.97209 21.1929C8.25799 21.4822 8.59771 21.7119 8.97181 21.8687C9.3459 22.0256 9.74702 22.1065 10.1522 22.1069H14.7496L16.3179 24.6862C16.334 24.7123 16.3514 24.7375 16.3701 24.7618C16.4161 24.8423 16.4824 24.9092 16.5623 24.9557C16.6421 25.0022 16.7327 25.0267 16.8249 25.0267C16.9172 25.0267 17.0078 25.0022 17.0876 24.9557C17.1675 24.9092 17.2337 24.8423 17.2798 24.7618C17.3011 24.7377 17.3197 24.7112 17.3352 24.6829L18.9003 22.1102H23.4977C23.9032 22.1098 24.3046 22.0289 24.6791 21.8721C25.0535 21.7153 25.3937 21.4858 25.6801 21.1966C25.9665 20.9073 26.1936 20.5641 26.3484 20.1864C26.5032 19.8087 26.5826 19.404 26.5822 18.9954V11.6025C26.5822 10.7775 26.2574 9.98627 25.6791 9.40231C25.1009 8.81834 24.3163 8.4894 23.4977 8.48766" fill="white"/>
<path d="M11.4047 13.9013C11.0194 13.9304 10.6578 14.0998 10.3874 14.3777V12.4688H9.19727V17.4828H10.4037V17.0885C10.5118 17.2548 10.6608 17.3901 10.8362 17.4811C11.0117 17.5721 11.2075 17.6157 11.4047 17.6076C11.6377 17.5975 11.8664 17.5409 12.0775 17.441C12.2887 17.3411 12.478 17.2 12.6345 17.0257C12.7911 16.8515 12.9117 16.6476 12.9894 16.426C13.0671 16.2044 13.1003 15.9694 13.0871 15.7348C13.0871 15.7348 13.0252 13.9013 11.4047 13.9013ZM11.1406 16.5463C10.9889 16.547 10.8404 16.5022 10.714 16.4178C10.5875 16.3333 10.4888 16.213 10.4303 16.0719C10.3718 15.9309 10.3562 15.7756 10.3854 15.6256C10.4146 15.4756 10.4873 15.3377 10.5943 15.2294C10.7014 15.121 10.8379 15.0472 10.9866 15.0171C11.1353 14.9871 11.2896 15.0022 11.4298 15.0605C11.57 15.1188 11.6898 15.2178 11.7742 15.3449C11.8585 15.4719 11.9035 15.6213 11.9035 15.7742C11.9035 15.8759 11.8836 15.9765 11.8449 16.0704C11.8062 16.1643 11.7495 16.2496 11.678 16.3213C11.6065 16.3931 11.5216 16.4499 11.4283 16.4885C11.3349 16.5271 11.2349 16.5468 11.134 16.5463" fill="#E0E0E0"/>
<path d="M13.472 12.3516V13.5147C13.472 13.5147 14.0165 13.4884 14.0165 14.5004V17.4576H15.1642V14.2376C15.1642 14.2376 15.2164 12.3516 13.4688 12.3516" fill="#E0E0E0"/>
<path d="M17.9839 13.918C17.9839 13.918 16.008 13.918 16.008 15.7711C16.008 15.7711 15.9461 17.6045 17.9839 17.6045C17.9839 17.6045 20.0022 17.6045 20.0022 15.7711C20.0022 15.7711 20.0674 13.918 17.9839 13.918ZM17.9839 16.5465C17.8324 16.5465 17.6842 16.5013 17.5582 16.4164C17.4322 16.3316 17.334 16.211 17.276 16.0699C17.218 15.9288 17.2028 15.7735 17.2324 15.6238C17.262 15.474 17.3349 15.3364 17.4421 15.2284C17.5493 15.1204 17.6858 15.0469 17.8344 15.0171C17.9831 14.9873 18.1371 15.0026 18.2771 15.061C18.4172 15.1195 18.5368 15.2184 18.621 15.3454C18.7052 15.4724 18.7501 15.6217 18.7501 15.7744C18.7501 15.8758 18.7303 15.9762 18.6918 16.0699C18.6533 16.1636 18.5969 16.2487 18.5257 16.3204C18.4546 16.3921 18.3701 16.449 18.2771 16.4878C18.1842 16.5266 18.0845 16.5465 17.9839 16.5465" fill="#E0E0E0"/>
<path d="M23.2954 14.0348V14.3634C23.1716 14.2184 23.0179 14.1025 22.845 14.0236C22.6721 13.9447 22.4842 13.9048 22.2945 13.9067C22.2945 13.9067 20.6055 13.8311 20.6055 15.7467C20.6055 15.7467 20.5859 17.5341 22.2358 17.5341C22.4328 17.538 22.6284 17.499 22.8091 17.4196C22.9897 17.3402 23.1512 17.2223 23.2824 17.0741V17.3567C23.2824 17.3567 23.3672 18.2339 22.5227 18.2339H22.2358V19.3018H22.6988C22.939 19.3043 23.1772 19.2565 23.3982 19.1613C23.6192 19.0662 23.8182 18.9258 23.9825 18.7491C24.1468 18.5724 24.2729 18.3632 24.3527 18.1349C24.4326 17.9065 24.4645 17.6638 24.4464 17.4224V14.0348H23.2954ZM22.5846 16.5451C22.4331 16.5451 22.2849 16.4998 22.1589 16.4149C22.0329 16.3301 21.9347 16.2095 21.8767 16.0684C21.8187 15.9273 21.8036 15.7721 21.8331 15.6223C21.8627 15.4725 21.9357 15.3349 22.0428 15.227C22.15 15.119 22.2865 15.0454 22.4352 15.0156C22.5838 14.9858 22.7379 15.0011 22.8779 15.0596C23.0179 15.118 23.1375 15.217 23.2217 15.344C23.3059 15.4709 23.3509 15.6202 23.3509 15.7729C23.35 15.9775 23.269 16.1733 23.1255 16.318C22.982 16.4626 22.7876 16.5442 22.5846 16.5451" fill="#E0E0E0"/>
</svg>
