<svg width="46" height="46" viewBox="0 0 46 46" fill="none" xmlns="http://www.w3.org/2000/svg">
<rect width="46" height="46" rx="23" fill="white"/>
<path d="M31.9994 27.4767V30.1864C32.0036 31.2223 31.0722 32.0873 30.0264 31.9929C21 32 14 24.935 14.0071 15.9692C13.9129 14.9289 14.7736 14.0011 15.8081 14.0001H18.5232C18.9625 13.9958 19.3883 14.151 19.7213 14.4368C20.6681 15.2495 21.2771 18.0078 21.0428 19.1043C20.8599 19.9604 19.9969 20.5593 19.4102 21.1448C20.6986 23.4062 22.5746 25.2785 24.8405 26.5644C25.4272 25.9788 26.0273 25.1176 26.8851 24.935C27.9855 24.7008 30.7615 25.3106 31.5709 26.264C31.8579 26.6021 32.0104 27.0337 31.9994 27.4767Z" fill="#FF8000"/>
<path d="M25.5 17.5C26.2372 17.6438 26.9689 17.9689 27.5 18.5C28.0311 19.0311 28.3562 19.7628 28.5 20.5M26 14C27.5315 14.1701 28.9097 14.9111 30 16C31.0903 17.0889 31.8279 18.4687 32 20" stroke="#FF8000" stroke-width="1.5" stroke-linecap="round" stroke-linejoin="round"/>
</svg>
