<svg width="59" height="68" viewBox="0 0 59 68" fill="none" xmlns="http://www.w3.org/2000/svg">
<g opacity="0.5" clip-path="url(#clip0_1834_2176)">
<path d="M24.659 49.1106C19.7819 49.1106 15.0143 47.6702 10.9592 44.9715C6.90404 42.2728 3.74342 38.4369 1.87705 33.9491C0.0106681 29.4614 -0.477639 24.5231 0.473832 19.7589C1.4253 14.9947 3.77384 10.6185 7.22245 7.18365C10.6711 3.74884 15.0649 1.4097 19.8482 0.462039C24.6316 -0.485623 29.5897 0.000760154 34.0955 1.85967C38.6014 3.71857 42.4526 6.86651 45.1621 10.9054C47.8717 14.9443 49.3179 19.6928 49.3179 24.5504C49.31 31.0617 46.7095 37.3041 42.0867 41.9084C37.464 46.5126 31.1965 49.1027 24.659 49.1106ZM24.659 1.98632C20.1759 1.98632 15.7935 3.31052 12.0661 5.79141C8.3387 8.27231 5.43368 11.7985 3.71854 15.9239C2.0034 20.0493 1.55514 24.5887 2.43047 28.9679C3.3058 33.3471 5.46542 37.3694 8.63613 40.526C11.8068 43.6826 15.8462 45.8318 20.2434 46.7017C24.6406 47.5716 29.198 47.1232 33.3393 45.4131C37.4805 43.703 41.0196 40.8081 43.5088 37.0945C45.998 33.3809 47.3256 29.0155 47.3236 24.5504C47.3157 18.5667 44.925 12.8305 40.676 8.60037C36.4269 4.37021 30.6667 1.99158 24.659 1.98632Z" fill="white"/>
<path d="M39.6219 42.8453L38.043 44.0586L43.1531 50.6558L44.7321 49.4425L39.6219 42.8453Z" fill="white"/>
<path d="M53.4565 68C52.5888 67.9988 51.7333 67.7963 50.9579 67.4084C50.1825 67.0205 49.5085 66.458 48.9894 65.7654L42.3585 56.8272C41.4832 55.6498 41.1133 54.1743 41.3302 52.7253C41.5471 51.2763 42.3331 49.9724 43.5152 49.1006C44.6973 48.2287 46.1787 47.8604 47.6336 48.0764C49.0884 48.2925 50.3975 49.0753 51.2728 50.2527L57.9037 59.1909C58.5175 60.0121 58.89 60.9871 58.9795 62.007C59.0691 63.0269 58.8722 64.0515 58.4109 64.9664C57.9495 65.8813 57.2419 66.6504 56.367 67.1878C55.4921 67.7253 54.4844 68.0099 53.4565 68.0099V68ZM46.8157 50.0243C46.054 50.0214 45.312 50.2653 44.7018 50.7194C44.3255 50.9969 44.0079 51.3455 43.7671 51.7454C43.5264 52.1453 43.3671 52.5885 43.2986 53.0498C43.2301 53.511 43.2536 53.9813 43.3677 54.4335C43.4819 54.8857 43.6845 55.311 43.9639 55.6851L50.5948 64.6233C50.9254 65.0689 51.3568 65.4306 51.854 65.6791C52.3512 65.9275 52.9003 66.0558 53.4565 66.0534C54.2154 66.0578 54.9547 65.8135 55.5605 65.3583C55.9348 65.0748 56.2484 64.7196 56.483 64.3137C56.7176 63.9078 56.8684 63.4594 56.9265 62.9946C57.0638 62.0652 56.8273 61.1194 56.2684 60.3628L49.6276 51.4245C49.3004 50.9895 48.876 50.6364 48.3879 50.3933C47.8997 50.1502 47.3614 50.0239 46.8157 50.0243Z" fill="white"/>
<path d="M26.732 34.73H22.9429C22.7737 34.73 22.6113 34.7969 22.4917 34.9161C22.372 35.0353 22.3048 35.197 22.3048 35.3656V39.0799C22.3034 39.1638 22.319 39.247 22.3506 39.3247C22.3822 39.4025 22.4292 39.4731 22.4887 39.5324C22.5482 39.5916 22.6191 39.6384 22.6971 39.6699C22.7752 39.7014 22.8588 39.7169 22.9429 39.7155H26.732C26.8167 39.7169 26.9007 39.7014 26.9793 39.67C27.0579 39.6387 27.1294 39.5921 27.1897 39.5329C27.25 39.4738 27.2979 39.4032 27.3306 39.3255C27.3633 39.2477 27.3802 39.1642 27.3801 39.0799V35.3656C27.3775 35.1961 27.3081 35.0344 27.1868 34.9155C27.0656 34.7966 26.9022 34.73 26.732 34.73Z" fill="white"/>
<path d="M30.4323 11.8084C28.9359 10.5228 27.0136 9.83624 25.0379 9.88172C23.9131 9.8251 22.7887 10.0005 21.7351 10.397C20.6816 10.7935 19.7217 11.4025 18.9155 12.1858C17.3219 14.0184 16.5129 16.4001 16.662 18.8199C16.6646 18.9894 16.7341 19.1511 16.8553 19.27C16.9766 19.3889 17.14 19.4556 17.3102 19.4555H20.142C20.3112 19.4555 20.4736 19.3886 20.5933 19.2694C20.7129 19.1502 20.7802 18.9885 20.7802 18.8199C20.7802 15.3738 22.1562 13.6954 24.998 13.6954C25.474 13.6385 25.9567 13.6896 26.41 13.8447C26.8634 13.9999 27.2757 14.2551 27.6161 14.5913C27.9565 14.9274 28.2162 15.3359 28.3758 15.7861C28.5354 16.2363 28.5908 16.7167 28.5378 17.1912C28.4528 18.7532 27.7544 20.2193 26.5934 21.273C23.8812 24.1531 22.8741 26.8743 22.8741 31.3235C22.8741 31.4921 22.9414 31.6538 23.061 31.773C23.1807 31.8922 23.343 31.9591 23.5123 31.9591H26.1646C26.3348 31.9591 26.4982 31.8925 26.6195 31.7736C26.7407 31.6546 26.8102 31.493 26.8128 31.3235C26.8128 28.2051 27.1717 26.5167 29.4053 24.1233C31.3996 22.0178 32.656 20.0415 32.656 17.1713C32.6885 16.1715 32.507 15.1762 32.1236 14.2515C31.7403 13.3269 31.1637 12.494 30.4323 11.8084Z" fill="white"/>
</g>
<defs>
<clipPath id="clip0_1834_2176">
<rect width="59" height="68" fill="white"/>
</clipPath>
</defs>
</svg>
